<mxfile host="app.diagrams.net" agent="Mozilla/5.0 (X11; Linux x86_64; rv:133.0) Gecko/20100101 Firefox/133.0" version="24.9.1">
  <diagram id="C5RBs43oDa-KdzZeNtuy" name="Page-1">
    <mxGraphModel dx="2456" dy="1082" grid="1" gridSize="10" guides="1" tooltips="1" connect="1" arrows="1" fold="1" page="1" pageScale="1" pageWidth="827" pageHeight="1169" math="0" shadow="0">
      <root>
        <mxCell id="WIyWlLk6GJQsqaUBKTNV-0" />
        <mxCell id="WIyWlLk6GJQsqaUBKTNV-1" parent="WIyWlLk6GJQsqaUBKTNV-0" />
        <mxCell id="gXQ1bGzr18bKDSAEKjB8-29" style="edgeStyle=orthogonalEdgeStyle;rounded=1;orthogonalLoop=1;jettySize=auto;html=1;exitX=0;exitY=1;exitDx=0;exitDy=0;entryX=0.5;entryY=0;entryDx=0;entryDy=0;curved=0;" parent="WIyWlLk6GJQsqaUBKTNV-1" source="WIyWlLk6GJQsqaUBKTNV-3" target="gXQ1bGzr18bKDSAEKjB8-5" edge="1">
          <mxGeometry relative="1" as="geometry">
            <Array as="points">
              <mxPoint x="-70" y="40" />
            </Array>
          </mxGeometry>
        </mxCell>
        <mxCell id="gXQ1bGzr18bKDSAEKjB8-31" style="edgeStyle=orthogonalEdgeStyle;rounded=1;orthogonalLoop=1;jettySize=auto;html=1;exitX=0.25;exitY=1;exitDx=0;exitDy=0;entryX=0.5;entryY=0;entryDx=0;entryDy=0;curved=0;" parent="WIyWlLk6GJQsqaUBKTNV-1" source="WIyWlLk6GJQsqaUBKTNV-3" target="gXQ1bGzr18bKDSAEKjB8-4" edge="1">
          <mxGeometry relative="1" as="geometry">
            <Array as="points">
              <mxPoint x="290" y="40" />
              <mxPoint x="290" y="65" />
              <mxPoint x="260" y="65" />
            </Array>
          </mxGeometry>
        </mxCell>
        <mxCell id="gXQ1bGzr18bKDSAEKjB8-32" style="edgeStyle=orthogonalEdgeStyle;rounded=1;orthogonalLoop=1;jettySize=auto;html=1;exitX=0.5;exitY=1;exitDx=0;exitDy=0;entryX=0.5;entryY=0;entryDx=0;entryDy=0;curved=0;" parent="WIyWlLk6GJQsqaUBKTNV-1" source="WIyWlLk6GJQsqaUBKTNV-3" target="gXQ1bGzr18bKDSAEKjB8-3" edge="1">
          <mxGeometry relative="1" as="geometry">
            <Array as="points">
              <mxPoint x="340" y="70" />
              <mxPoint x="90" y="70" />
              <mxPoint x="90" y="120" />
            </Array>
          </mxGeometry>
        </mxCell>
        <mxCell id="gXQ1bGzr18bKDSAEKjB8-33" style="edgeStyle=orthogonalEdgeStyle;rounded=1;orthogonalLoop=1;jettySize=auto;html=1;exitX=0.75;exitY=1;exitDx=0;exitDy=0;entryX=0.5;entryY=0;entryDx=0;entryDy=0;curved=0;" parent="WIyWlLk6GJQsqaUBKTNV-1" source="WIyWlLk6GJQsqaUBKTNV-3" target="gXQ1bGzr18bKDSAEKjB8-0" edge="1">
          <mxGeometry relative="1" as="geometry" />
        </mxCell>
        <mxCell id="gXQ1bGzr18bKDSAEKjB8-34" style="edgeStyle=orthogonalEdgeStyle;rounded=1;orthogonalLoop=1;jettySize=auto;html=1;exitX=1;exitY=1;exitDx=0;exitDy=0;entryX=0.5;entryY=0;entryDx=0;entryDy=0;curved=0;" parent="WIyWlLk6GJQsqaUBKTNV-1" source="WIyWlLk6GJQsqaUBKTNV-3" target="gXQ1bGzr18bKDSAEKjB8-1" edge="1">
          <mxGeometry relative="1" as="geometry" />
        </mxCell>
        <mxCell id="gXQ1bGzr18bKDSAEKjB8-35" style="edgeStyle=orthogonalEdgeStyle;rounded=1;orthogonalLoop=1;jettySize=auto;html=1;exitX=1;exitY=1;exitDx=0;exitDy=0;entryX=0.5;entryY=0;entryDx=0;entryDy=0;curved=0;" parent="WIyWlLk6GJQsqaUBKTNV-1" source="WIyWlLk6GJQsqaUBKTNV-3" target="gXQ1bGzr18bKDSAEKjB8-2" edge="1">
          <mxGeometry relative="1" as="geometry">
            <Array as="points">
              <mxPoint x="750" y="40" />
            </Array>
          </mxGeometry>
        </mxCell>
        <mxCell id="WIyWlLk6GJQsqaUBKTNV-3" value="Cron Runs" style="rounded=1;whiteSpace=wrap;html=1;fontSize=12;glass=0;strokeWidth=1;shadow=0;" parent="WIyWlLk6GJQsqaUBKTNV-1" vertex="1">
          <mxGeometry x="250" width="180" height="40" as="geometry" />
        </mxCell>
        <mxCell id="3H67fLxBT_Na-QWWJiMG-2" style="edgeStyle=orthogonalEdgeStyle;rounded=1;orthogonalLoop=1;jettySize=auto;html=1;exitX=0.5;exitY=1;exitDx=0;exitDy=0;entryX=1;entryY=0.5;entryDx=0;entryDy=0;curved=0;" edge="1" parent="WIyWlLk6GJQsqaUBKTNV-1" source="gXQ1bGzr18bKDSAEKjB8-0" target="gXQ1bGzr18bKDSAEKjB8-15">
          <mxGeometry relative="1" as="geometry" />
        </mxCell>
        <mxCell id="gXQ1bGzr18bKDSAEKjB8-0" value="Social Link Ancillary Page Importer" style="rounded=1;whiteSpace=wrap;html=1;" parent="WIyWlLk6GJQsqaUBKTNV-1" vertex="1">
          <mxGeometry x="360" y="90" width="120" height="60" as="geometry" />
        </mxCell>
        <mxCell id="gXQ1bGzr18bKDSAEKjB8-40" style="edgeStyle=orthogonalEdgeStyle;rounded=0;orthogonalLoop=1;jettySize=auto;html=1;exitX=0.5;exitY=1;exitDx=0;exitDy=0;entryX=0.5;entryY=0;entryDx=0;entryDy=0;" parent="WIyWlLk6GJQsqaUBKTNV-1" source="gXQ1bGzr18bKDSAEKjB8-1" target="gXQ1bGzr18bKDSAEKjB8-16" edge="1">
          <mxGeometry relative="1" as="geometry" />
        </mxCell>
        <mxCell id="gXQ1bGzr18bKDSAEKjB8-1" value="Book Importer" style="rounded=1;whiteSpace=wrap;html=1;" parent="WIyWlLk6GJQsqaUBKTNV-1" vertex="1">
          <mxGeometry x="530" y="90" width="120" height="60" as="geometry" />
        </mxCell>
        <mxCell id="gXQ1bGzr18bKDSAEKjB8-41" style="edgeStyle=orthogonalEdgeStyle;rounded=0;orthogonalLoop=1;jettySize=auto;html=1;exitX=0.5;exitY=1;exitDx=0;exitDy=0;entryX=0.5;entryY=0;entryDx=0;entryDy=0;" parent="WIyWlLk6GJQsqaUBKTNV-1" source="gXQ1bGzr18bKDSAEKjB8-2" target="gXQ1bGzr18bKDSAEKjB8-24" edge="1">
          <mxGeometry relative="1" as="geometry" />
        </mxCell>
        <mxCell id="gXQ1bGzr18bKDSAEKjB8-2" value="Algolia Index" style="rounded=1;whiteSpace=wrap;html=1;" parent="WIyWlLk6GJQsqaUBKTNV-1" vertex="1">
          <mxGeometry x="690" y="90" width="120" height="60" as="geometry" />
        </mxCell>
        <mxCell id="gXQ1bGzr18bKDSAEKjB8-38" style="edgeStyle=orthogonalEdgeStyle;rounded=1;orthogonalLoop=1;jettySize=auto;html=1;exitX=0.5;exitY=1;exitDx=0;exitDy=0;entryX=0.5;entryY=0;entryDx=0;entryDy=0;curved=0;" parent="WIyWlLk6GJQsqaUBKTNV-1" source="gXQ1bGzr18bKDSAEKjB8-3" target="gXQ1bGzr18bKDSAEKjB8-17" edge="1">
          <mxGeometry relative="1" as="geometry" />
        </mxCell>
        <mxCell id="gXQ1bGzr18bKDSAEKjB8-3" value="Book Price Importer" style="rounded=1;whiteSpace=wrap;html=1;" parent="WIyWlLk6GJQsqaUBKTNV-1" vertex="1">
          <mxGeometry x="32.5" y="90" width="120" height="60" as="geometry" />
        </mxCell>
        <mxCell id="3H67fLxBT_Na-QWWJiMG-1" style="edgeStyle=orthogonalEdgeStyle;rounded=1;orthogonalLoop=1;jettySize=auto;html=1;exitX=0.5;exitY=1;exitDx=0;exitDy=0;entryX=0;entryY=0.5;entryDx=0;entryDy=0;curved=0;" edge="1" parent="WIyWlLk6GJQsqaUBKTNV-1" source="gXQ1bGzr18bKDSAEKjB8-4" target="gXQ1bGzr18bKDSAEKjB8-15">
          <mxGeometry relative="1" as="geometry" />
        </mxCell>
        <mxCell id="gXQ1bGzr18bKDSAEKjB8-4" value="TOC Importer" style="rounded=1;whiteSpace=wrap;html=1;" parent="WIyWlLk6GJQsqaUBKTNV-1" vertex="1">
          <mxGeometry x="200" y="90" width="120" height="60" as="geometry" />
        </mxCell>
        <mxCell id="gXQ1bGzr18bKDSAEKjB8-36" style="edgeStyle=orthogonalEdgeStyle;rounded=0;orthogonalLoop=1;jettySize=auto;html=1;exitX=0.5;exitY=1;exitDx=0;exitDy=0;entryX=0.5;entryY=0;entryDx=0;entryDy=0;" parent="WIyWlLk6GJQsqaUBKTNV-1" source="gXQ1bGzr18bKDSAEKjB8-5" target="gXQ1bGzr18bKDSAEKjB8-12" edge="1">
          <mxGeometry relative="1" as="geometry" />
        </mxCell>
        <mxCell id="gXQ1bGzr18bKDSAEKjB8-5" value="Award Importer" style="rounded=1;whiteSpace=wrap;html=1;" parent="WIyWlLk6GJQsqaUBKTNV-1" vertex="1">
          <mxGeometry x="-130" y="90" width="120" height="60" as="geometry" />
        </mxCell>
        <mxCell id="gXQ1bGzr18bKDSAEKjB8-42" style="edgeStyle=orthogonalEdgeStyle;rounded=0;orthogonalLoop=1;jettySize=auto;html=1;entryX=0.5;entryY=0;entryDx=0;entryDy=0;" parent="WIyWlLk6GJQsqaUBKTNV-1" source="gXQ1bGzr18bKDSAEKjB8-12" target="gXQ1bGzr18bKDSAEKjB8-13" edge="1">
          <mxGeometry relative="1" as="geometry" />
        </mxCell>
        <mxCell id="gXQ1bGzr18bKDSAEKjB8-12" value="Update Award Entity" style="whiteSpace=wrap;html=1;aspect=fixed;" parent="WIyWlLk6GJQsqaUBKTNV-1" vertex="1">
          <mxGeometry x="-110" y="210" width="80" height="80" as="geometry" />
        </mxCell>
        <mxCell id="3H67fLxBT_Na-QWWJiMG-4" style="edgeStyle=orthogonalEdgeStyle;rounded=1;orthogonalLoop=1;jettySize=auto;html=1;exitX=0.5;exitY=1;exitDx=0;exitDy=0;entryX=0;entryY=0.5;entryDx=0;entryDy=0;curved=0;" edge="1" parent="WIyWlLk6GJQsqaUBKTNV-1" source="gXQ1bGzr18bKDSAEKjB8-13" target="gXQ1bGzr18bKDSAEKjB8-1">
          <mxGeometry relative="1" as="geometry">
            <Array as="points">
              <mxPoint x="-70" y="458" />
              <mxPoint x="-190" y="458" />
              <mxPoint x="-190" y="180" />
              <mxPoint x="500" y="180" />
              <mxPoint x="500" y="120" />
            </Array>
          </mxGeometry>
        </mxCell>
        <mxCell id="gXQ1bGzr18bKDSAEKjB8-13" value="Trigger Book to be updated" style="whiteSpace=wrap;html=1;aspect=fixed;" parent="WIyWlLk6GJQsqaUBKTNV-1" vertex="1">
          <mxGeometry x="-110" y="357.5" width="80" height="80" as="geometry" />
        </mxCell>
        <mxCell id="3H67fLxBT_Na-QWWJiMG-3" style="edgeStyle=orthogonalEdgeStyle;rounded=0;orthogonalLoop=1;jettySize=auto;html=1;exitX=0.5;exitY=1;exitDx=0;exitDy=0;entryX=0.5;entryY=0;entryDx=0;entryDy=0;" edge="1" parent="WIyWlLk6GJQsqaUBKTNV-1" source="gXQ1bGzr18bKDSAEKjB8-15" target="gXQ1bGzr18bKDSAEKjB8-23">
          <mxGeometry relative="1" as="geometry" />
        </mxCell>
        <mxCell id="gXQ1bGzr18bKDSAEKjB8-15" value="Update &quot;Book Excerpt&quot; node" style="whiteSpace=wrap;html=1;aspect=fixed;" parent="WIyWlLk6GJQsqaUBKTNV-1" vertex="1">
          <mxGeometry x="300" y="210" width="70" height="70" as="geometry" />
        </mxCell>
        <mxCell id="gXQ1bGzr18bKDSAEKjB8-46" style="edgeStyle=orthogonalEdgeStyle;rounded=0;orthogonalLoop=1;jettySize=auto;html=1;exitX=0.5;exitY=1;exitDx=0;exitDy=0;entryX=0.5;entryY=0;entryDx=0;entryDy=0;" parent="WIyWlLk6GJQsqaUBKTNV-1" source="gXQ1bGzr18bKDSAEKjB8-16" target="gXQ1bGzr18bKDSAEKjB8-21" edge="1">
          <mxGeometry relative="1" as="geometry" />
        </mxCell>
        <mxCell id="gXQ1bGzr18bKDSAEKjB8-16" value="Update &quot;Book&quot; node" style="whiteSpace=wrap;html=1;aspect=fixed;" parent="WIyWlLk6GJQsqaUBKTNV-1" vertex="1">
          <mxGeometry x="540" y="210" width="80" height="80" as="geometry" />
        </mxCell>
        <mxCell id="gXQ1bGzr18bKDSAEKjB8-44" style="edgeStyle=orthogonalEdgeStyle;rounded=0;orthogonalLoop=1;jettySize=auto;html=1;exitX=0.5;exitY=1;exitDx=0;exitDy=0;entryX=0.5;entryY=0;entryDx=0;entryDy=0;" parent="WIyWlLk6GJQsqaUBKTNV-1" source="gXQ1bGzr18bKDSAEKjB8-17" target="gXQ1bGzr18bKDSAEKjB8-19" edge="1">
          <mxGeometry relative="1" as="geometry" />
        </mxCell>
        <mxCell id="gXQ1bGzr18bKDSAEKjB8-17" value="Update Price Entity" style="whiteSpace=wrap;html=1;aspect=fixed;" parent="WIyWlLk6GJQsqaUBKTNV-1" vertex="1">
          <mxGeometry x="52.5" y="210" width="80" height="80" as="geometry" />
        </mxCell>
        <mxCell id="gXQ1bGzr18bKDSAEKjB8-19" value="&lt;div&gt;Invalidate price entity API route (slug=/tags/price:[price-entity-uuid]&lt;br&gt;&lt;/div&gt;" style="ellipse;whiteSpace=wrap;html=1;" parent="WIyWlLk6GJQsqaUBKTNV-1" vertex="1">
          <mxGeometry x="15" y="315" width="155" height="160" as="geometry" />
        </mxCell>
        <mxCell id="gXQ1bGzr18bKDSAEKjB8-21" value="&lt;div&gt;Invalidate Node page (slug=/path/to/page) &amp;amp; View Lists (slug=/tags/views:sup_book)&lt;/div&gt;" style="ellipse;whiteSpace=wrap;html=1;" parent="WIyWlLk6GJQsqaUBKTNV-1" vertex="1">
          <mxGeometry x="505" y="315" width="150" height="165" as="geometry" />
        </mxCell>
        <mxCell id="gXQ1bGzr18bKDSAEKjB8-23" value="Invalidate Node page (slug=/path/to/page) and Excerpt list for respective book (slug=/tags/excerpts:[book-uuid])" style="ellipse;whiteSpace=wrap;html=1;" parent="WIyWlLk6GJQsqaUBKTNV-1" vertex="1">
          <mxGeometry x="262.5" y="310" width="145" height="165" as="geometry" />
        </mxCell>
        <mxCell id="gXQ1bGzr18bKDSAEKjB8-24" value="&lt;div&gt;Search API module sends data to Algolia API&lt;/div&gt;" style="whiteSpace=wrap;html=1;aspect=fixed;" parent="WIyWlLk6GJQsqaUBKTNV-1" vertex="1">
          <mxGeometry x="720" y="210" width="80" height="80" as="geometry" />
        </mxCell>
        <mxCell id="gXQ1bGzr18bKDSAEKjB8-50" style="edgeStyle=orthogonalEdgeStyle;rounded=0;orthogonalLoop=1;jettySize=auto;html=1;exitX=0.5;exitY=1;exitDx=0;exitDy=0;entryX=0.5;entryY=0;entryDx=0;entryDy=0;" parent="WIyWlLk6GJQsqaUBKTNV-1" source="gXQ1bGzr18bKDSAEKjB8-48" edge="1">
          <mxGeometry relative="1" as="geometry">
            <mxPoint x="330" y="680" as="targetPoint" />
          </mxGeometry>
        </mxCell>
        <mxCell id="gXQ1bGzr18bKDSAEKjB8-48" value="Node is edited via UI" style="rounded=1;whiteSpace=wrap;html=1;" parent="WIyWlLk6GJQsqaUBKTNV-1" vertex="1">
          <mxGeometry x="270" y="580" width="120" height="60" as="geometry" />
        </mxCell>
        <mxCell id="gXQ1bGzr18bKDSAEKjB8-58" style="edgeStyle=orthogonalEdgeStyle;rounded=0;orthogonalLoop=1;jettySize=auto;html=1;exitX=0.5;exitY=1;exitDx=0;exitDy=0;entryX=0.5;entryY=0;entryDx=0;entryDy=0;" parent="WIyWlLk6GJQsqaUBKTNV-1" source="gXQ1bGzr18bKDSAEKjB8-51" target="gXQ1bGzr18bKDSAEKjB8-52" edge="1">
          <mxGeometry relative="1" as="geometry" />
        </mxCell>
        <mxCell id="gXQ1bGzr18bKDSAEKjB8-59" value="&lt;div&gt;NO&lt;/div&gt;" style="edgeLabel;html=1;align=center;verticalAlign=middle;resizable=0;points=[];" parent="gXQ1bGzr18bKDSAEKjB8-58" vertex="1" connectable="0">
          <mxGeometry x="-0.0667" y="-1" relative="1" as="geometry">
            <mxPoint as="offset" />
          </mxGeometry>
        </mxCell>
        <mxCell id="gXQ1bGzr18bKDSAEKjB8-61" style="edgeStyle=orthogonalEdgeStyle;rounded=1;orthogonalLoop=1;jettySize=auto;html=1;exitX=1;exitY=0.5;exitDx=0;exitDy=0;entryX=0.5;entryY=1;entryDx=0;entryDy=0;curved=0;" parent="WIyWlLk6GJQsqaUBKTNV-1" source="gXQ1bGzr18bKDSAEKjB8-51" target="gXQ1bGzr18bKDSAEKjB8-21" edge="1">
          <mxGeometry relative="1" as="geometry" />
        </mxCell>
        <mxCell id="gXQ1bGzr18bKDSAEKjB8-62" value="&lt;div&gt;YES&lt;/div&gt;" style="edgeLabel;html=1;align=center;verticalAlign=middle;resizable=0;points=[];" parent="gXQ1bGzr18bKDSAEKjB8-61" vertex="1" connectable="0">
          <mxGeometry x="-0.771" y="4" relative="1" as="geometry">
            <mxPoint as="offset" />
          </mxGeometry>
        </mxCell>
        <mxCell id="gXQ1bGzr18bKDSAEKjB8-51" value="Is Book?" style="rhombus;whiteSpace=wrap;html=1;" parent="WIyWlLk6GJQsqaUBKTNV-1" vertex="1">
          <mxGeometry x="290" y="680" width="80" height="80" as="geometry" />
        </mxCell>
        <mxCell id="gXQ1bGzr18bKDSAEKjB8-54" style="edgeStyle=orthogonalEdgeStyle;rounded=1;orthogonalLoop=1;jettySize=auto;html=1;exitX=0;exitY=0.5;exitDx=0;exitDy=0;entryX=0.5;entryY=1;entryDx=0;entryDy=0;curved=0;" parent="WIyWlLk6GJQsqaUBKTNV-1" source="gXQ1bGzr18bKDSAEKjB8-52" target="gXQ1bGzr18bKDSAEKjB8-23" edge="1">
          <mxGeometry relative="1" as="geometry">
            <Array as="points">
              <mxPoint x="130" y="870" />
              <mxPoint x="130" y="540" />
              <mxPoint x="335" y="540" />
            </Array>
          </mxGeometry>
        </mxCell>
        <mxCell id="gXQ1bGzr18bKDSAEKjB8-55" value="&lt;div&gt;YES&lt;/div&gt;" style="edgeLabel;html=1;align=center;verticalAlign=middle;resizable=0;points=[];" parent="gXQ1bGzr18bKDSAEKjB8-54" vertex="1" connectable="0">
          <mxGeometry x="-0.8484" y="-7" relative="1" as="geometry">
            <mxPoint as="offset" />
          </mxGeometry>
        </mxCell>
        <mxCell id="gXQ1bGzr18bKDSAEKjB8-56" style="edgeStyle=orthogonalEdgeStyle;rounded=0;orthogonalLoop=1;jettySize=auto;html=1;exitX=0.5;exitY=1;exitDx=0;exitDy=0;entryX=0.5;entryY=0;entryDx=0;entryDy=0;" parent="WIyWlLk6GJQsqaUBKTNV-1" source="gXQ1bGzr18bKDSAEKjB8-52" target="gXQ1bGzr18bKDSAEKjB8-53" edge="1">
          <mxGeometry relative="1" as="geometry" />
        </mxCell>
        <mxCell id="gXQ1bGzr18bKDSAEKjB8-57" value="NO" style="edgeLabel;html=1;align=center;verticalAlign=middle;resizable=0;points=[];" parent="gXQ1bGzr18bKDSAEKjB8-56" vertex="1" connectable="0">
          <mxGeometry x="-0.2653" y="-2" relative="1" as="geometry">
            <mxPoint as="offset" />
          </mxGeometry>
        </mxCell>
        <mxCell id="gXQ1bGzr18bKDSAEKjB8-52" value="Is Excerpt?" style="rhombus;whiteSpace=wrap;html=1;" parent="WIyWlLk6GJQsqaUBKTNV-1" vertex="1">
          <mxGeometry x="290" y="830" width="80" height="80" as="geometry" />
        </mxCell>
        <mxCell id="gXQ1bGzr18bKDSAEKjB8-65" style="edgeStyle=orthogonalEdgeStyle;rounded=0;orthogonalLoop=1;jettySize=auto;html=1;exitX=1;exitY=0.5;exitDx=0;exitDy=0;entryX=0;entryY=0.5;entryDx=0;entryDy=0;" parent="WIyWlLk6GJQsqaUBKTNV-1" source="gXQ1bGzr18bKDSAEKjB8-53" target="gXQ1bGzr18bKDSAEKjB8-64" edge="1">
          <mxGeometry relative="1" as="geometry" />
        </mxCell>
        <mxCell id="gXQ1bGzr18bKDSAEKjB8-66" value="YES" style="edgeLabel;html=1;align=center;verticalAlign=middle;resizable=0;points=[];" parent="gXQ1bGzr18bKDSAEKjB8-65" vertex="1" connectable="0">
          <mxGeometry x="-0.0222" y="3" relative="1" as="geometry">
            <mxPoint as="offset" />
          </mxGeometry>
        </mxCell>
        <mxCell id="gXQ1bGzr18bKDSAEKjB8-53" value="Is Basic Page?" style="rhombus;whiteSpace=wrap;html=1;" parent="WIyWlLk6GJQsqaUBKTNV-1" vertex="1">
          <mxGeometry x="290" y="980" width="80" height="80" as="geometry" />
        </mxCell>
        <mxCell id="gXQ1bGzr18bKDSAEKjB8-64" value="&lt;div&gt;Invalidate Node page (slug=/path/to/page) &amp;amp; View Lists (slug=/tags/views:all)&lt;/div&gt;" style="ellipse;whiteSpace=wrap;html=1;" parent="WIyWlLk6GJQsqaUBKTNV-1" vertex="1">
          <mxGeometry x="505" y="937.5" width="150" height="165" as="geometry" />
        </mxCell>
        <mxCell id="gXQ1bGzr18bKDSAEKjB8-121" style="edgeStyle=orthogonalEdgeStyle;rounded=0;orthogonalLoop=1;jettySize=auto;html=1;entryX=0.5;entryY=0;entryDx=0;entryDy=0;" parent="WIyWlLk6GJQsqaUBKTNV-1" source="gXQ1bGzr18bKDSAEKjB8-67" target="gXQ1bGzr18bKDSAEKjB8-120" edge="1">
          <mxGeometry relative="1" as="geometry" />
        </mxCell>
        <mxCell id="gXQ1bGzr18bKDSAEKjB8-67" value="Config Page is edited via UI" style="rounded=1;whiteSpace=wrap;html=1;" parent="WIyWlLk6GJQsqaUBKTNV-1" vertex="1">
          <mxGeometry x="-200" y="580" width="120" height="60" as="geometry" />
        </mxCell>
        <mxCell id="gXQ1bGzr18bKDSAEKjB8-120" value="&lt;div&gt;Invalidate config pages (slug=/tags/config-pages)&lt;/div&gt;&lt;div&gt;&lt;br&gt;&lt;/div&gt;&lt;div&gt;This will rebuild every page&lt;br&gt;&lt;/div&gt;" style="ellipse;whiteSpace=wrap;html=1;" parent="WIyWlLk6GJQsqaUBKTNV-1" vertex="1">
          <mxGeometry x="-215" y="710" width="150" height="165" as="geometry" />
        </mxCell>
        <mxCell id="gXQ1bGzr18bKDSAEKjB8-124" style="edgeStyle=orthogonalEdgeStyle;rounded=0;orthogonalLoop=1;jettySize=auto;html=1;entryX=0.5;entryY=0;entryDx=0;entryDy=0;" parent="WIyWlLk6GJQsqaUBKTNV-1" source="gXQ1bGzr18bKDSAEKjB8-122" target="gXQ1bGzr18bKDSAEKjB8-123" edge="1">
          <mxGeometry relative="1" as="geometry" />
        </mxCell>
        <mxCell id="gXQ1bGzr18bKDSAEKjB8-122" value="Menu Item is edited via UI" style="rounded=1;whiteSpace=wrap;html=1;" parent="WIyWlLk6GJQsqaUBKTNV-1" vertex="1">
          <mxGeometry x="-30" y="580" width="120" height="60" as="geometry" />
        </mxCell>
        <mxCell id="gXQ1bGzr18bKDSAEKjB8-123" value="&lt;div&gt;Invalidate menus (slug=/tags/menu:main)&lt;/div&gt;&lt;div&gt;&lt;br&gt;&lt;/div&gt;&lt;div&gt;This will rebuild every page&lt;br&gt;&lt;/div&gt;" style="ellipse;whiteSpace=wrap;html=1;" parent="WIyWlLk6GJQsqaUBKTNV-1" vertex="1">
          <mxGeometry x="-45" y="710" width="150" height="165" as="geometry" />
        </mxCell>
      </root>
    </mxGraphModel>
  </diagram>
</mxfile>
